<svg xmlns="http://www.w3.org/2000/svg" xmlns:xlink="http://www.w3.org/1999/xlink" viewBox="0 0 800 800" width="800" height="800" preserveAspectRatio="xMidYMid meet" style="width: 100%; height: 100%; transform: translate3d(0px, 0px, 0px); content-visibility: visible;" id="Customer service chat"><defs><clipPath id="__lottie_element_3503"><rect width="800" height="800" x="0" y="0"/></clipPath></defs><g clip-path="url(#__lottie_element_3503)"><g transform="matrix(1,0,0,1,84.72000122070312,152.24798583984375)" opacity="1" style="display: block;"><g opacity="1" transform="matrix(1,0,0,1,315.2799987792969,274.7550048828125)"><path fill="rgb(255,255,255)" fill-opacity="1" d=" M229.84800720214844,107.77799987792969 C229.84800720214844,107.77799987792969 -84.93699645996094,107.77799987792969 -84.93699645996094,107.77799987792969 C-84.93699645996094,107.77799987792969 -175.7550048828125,206.47500610351562 -175.7550048828125,206.47500610351562 C-175.7550048828125,206.47500610351562 -176.58200073242188,107.77799987792969 -176.58200073242188,107.77799987792969 C-176.58200073242188,107.77799987792969 -229.84800720214844,107.77799987792969 -229.84800720214844,107.77799987792969 C-239.32000732421875,107.77799987792969 -247,100.0979995727539 -247,90.6259994506836 C-247,90.6259994506836 -247,-189.32400512695312 -247,-189.32400512695312 C-247,-198.7969970703125 -239.32000732421875,-206.47500610351562 -229.84800720214844,-206.47500610351562 C-229.84800720214844,-206.47500610351562 229.84800720214844,-206.47500610351562 229.84800720214844,-206.47500610351562 C239.3209991455078,-206.47500610351562 247,-198.7969970703125 247,-189.32400512695312 C247,-189.32400512695312 247,90.6259994506836 247,90.6259994506836 C247,100.0979995727539 239.3209991455078,107.77799987792969 229.84800720214844,107.77799987792969z"/><path stroke-linecap="round" stroke-linejoin="round" fill-opacity="0" stroke="rgb(63,80,180)" stroke-opacity="1" stroke-width="27.312" d=" M229.84800720214844,107.77799987792969 C229.84800720214844,107.77799987792969 -84.93699645996094,107.77799987792969 -84.93699645996094,107.77799987792969 C-84.93699645996094,107.77799987792969 -175.7550048828125,206.47500610351562 -175.7550048828125,206.47500610351562 C-175.7550048828125,206.47500610351562 -176.58200073242188,107.77799987792969 -176.58200073242188,107.77799987792969 C-176.58200073242188,107.77799987792969 -229.84800720214844,107.77799987792969 -229.84800720214844,107.77799987792969 C-239.32000732421875,107.77799987792969 -247,100.0979995727539 -247,90.6259994506836 C-247,90.6259994506836 -247,-189.32400512695312 -247,-189.32400512695312 C-247,-198.7969970703125 -239.32000732421875,-206.47500610351562 -229.84800720214844,-206.47500610351562 C-229.84800720214844,-206.47500610351562 229.84800720214844,-206.47500610351562 229.84800720214844,-206.47500610351562 C239.3209991455078,-206.47500610351562 247,-198.7969970703125 247,-189.32400512695312 C247,-189.32400512695312 247,90.6259994506836 247,90.6259994506836 C247,100.0979995727539 239.3209991455078,107.77799987792969 229.84800720214844,107.77799987792969z"/></g></g><g transform="matrix(1,0,0,1,284.82000732421875,273.91302490234375)" opacity="1" style="display: block;"><g opacity="1" transform="matrix(1,0,0,1,41.816001892089844,41.81700134277344)"><path fill="rgb(63,80,180)" fill-opacity="1" d=" M41.56700134277344,-0.0010000000474974513 C41.56700134277344,22.95599937438965 22.957000732421875,41.566001892089844 0.0010000000474974513,41.566001892089844 C-22.95599937438965,41.566001892089844 -41.56700134277344,22.95599937438965 -41.56700134277344,-0.0010000000474974513 C-41.56700134277344,-22.95800018310547 -22.95599937438965,-41.566001892089844 0.0010000000474974513,-41.566001892089844 C22.957000732421875,-41.566001892089844 41.56700134277344,-22.95800018310547 41.56700134277344,-0.0010000000474974513z"/></g></g><g transform="matrix(1,0,0,1,431.6829833984375,273.91302490234375)" opacity="1" style="display: block;"><g opacity="1" transform="matrix(1,0,0,1,41.816001892089844,41.81700134277344)"><path fill="rgb(63,80,180)" fill-opacity="1" d=" M41.56700134277344,-0.0010000000474974513 C41.56700134277344,22.95599937438965 22.957000732421875,41.566001892089844 0.0010000000474974513,41.566001892089844 C-22.95599937438965,41.566001892089844 -41.56700134277344,22.95599937438965 -41.56700134277344,-0.0010000000474974513 C-41.56700134277344,-22.95800018310547 -22.95599937438965,-41.566001892089844 0.0010000000474974513,-41.566001892089844 C22.957000732421875,-41.566001892089844 41.56700134277344,-22.95800018310547 41.56700134277344,-0.0010000000474974513z"/></g></g><g transform="matrix(0.49000000953674316,0,0,0.49000000953674316,502.0146789550781,372.73968505859375)" opacity="1" style="display: block;"><g opacity="1" transform="matrix(1,0,0,1,41.816001892089844,41.81700134277344)"><path fill="rgb(63,80,180)" fill-opacity="1" d=" M41.56700134277344,-0.0010000000474974513 C41.56700134277344,22.95599937438965 22.957000732421875,41.566001892089844 0.0010000000474974513,41.566001892089844 C-22.95599937438965,41.566001892089844 -41.56700134277344,22.95599937438965 -41.56700134277344,-0.0010000000474974513 C-41.56700134277344,-22.95800018310547 -22.95599937438965,-41.566001892089844 0.0010000000474974513,-41.566001892089844 C22.957000732421875,-41.566001892089844 41.56700134277344,-22.95800018310547 41.56700134277344,-0.0010000000474974513z"/></g></g><g transform="matrix(1,0,0,1,177.23300170898438,292.6629943847656)" opacity="1" style="display: block;"><g opacity="1" transform="matrix(1,0,0,1,222.76600646972656,134.33799743652344)"><path stroke-linecap="round" stroke-linejoin="round" fill-opacity="0" stroke="rgb(63,80,180)" stroke-opacity="1" stroke-width="45" d=" M-122.76599884033203,-34.3380012512207 C-103.10099792480469,5.938000202178955 -55.542999267578125,34.3380012512207 0.0010000000474974513,34.3380012512207 C55.54499816894531,34.3380012512207 103.10099792480469,5.938000202178955 122.76599884033203,-34.3380012512207"/></g></g></g></svg>